<mxfile host="app.diagrams.net" modified="2023-06-14T02:14:38.960Z" agent="Mozilla/5.0 (Windows NT 10.0; Win64; x64) AppleWebKit/537.36 (KHTML, like Gecko) Chrome/114.0.0.0 Safari/537.36 Edg/114.0.1823.43" etag="aRGOZYSkucMBebQLr1a1" version="21.3.8" type="device">
  <diagram name="PÃ¡gina-1" id="BPQq42PbWA4DOGbKkONi">
    <mxGraphModel dx="3044" dy="1240" grid="1" gridSize="10" guides="1" tooltips="1" connect="1" arrows="1" fold="1" page="0" pageScale="1" pageWidth="827" pageHeight="1169" math="0" shadow="0">
      <root>
        <mxCell id="0" />
        <mxCell id="1" parent="0" />
        <mxCell id="NT0_bbsCZoUvxWL017kN-25" value="ID_admin&lt;br&gt;porteria" style="ellipse;whiteSpace=wrap;html=1;rounded=0;" parent="1" vertex="1">
          <mxGeometry x="-967" y="660" width="80" height="80" as="geometry" />
        </mxCell>
        <mxCell id="tY30CG3YEIntR_Pu_ahy-32" style="edgeStyle=orthogonalEdgeStyle;rounded=0;orthogonalLoop=1;jettySize=auto;html=1;entryX=0.4;entryY=1.013;entryDx=0;entryDy=0;entryPerimeter=0;" parent="1" source="N72h9mEMTKAlr6Vf99Wo-1" target="N72h9mEMTKAlr6Vf99Wo-11" edge="1">
          <mxGeometry relative="1" as="geometry">
            <mxPoint x="-580" y="170" as="targetPoint" />
            <Array as="points">
              <mxPoint x="-450" y="180" />
              <mxPoint x="-645" y="180" />
            </Array>
          </mxGeometry>
        </mxCell>
        <mxCell id="tY30CG3YEIntR_Pu_ahy-33" style="edgeStyle=orthogonalEdgeStyle;rounded=0;orthogonalLoop=1;jettySize=auto;html=1;entryX=0.5;entryY=1;entryDx=0;entryDy=0;" parent="1" source="N72h9mEMTKAlr6Vf99Wo-1" target="N72h9mEMTKAlr6Vf99Wo-7" edge="1">
          <mxGeometry relative="1" as="geometry">
            <Array as="points">
              <mxPoint x="-470" y="200" />
              <mxPoint x="-500" y="200" />
            </Array>
          </mxGeometry>
        </mxCell>
        <mxCell id="tY30CG3YEIntR_Pu_ahy-34" style="edgeStyle=orthogonalEdgeStyle;rounded=0;orthogonalLoop=1;jettySize=auto;html=1;entryX=0.5;entryY=1;entryDx=0;entryDy=0;" parent="1" source="N72h9mEMTKAlr6Vf99Wo-1" target="N72h9mEMTKAlr6Vf99Wo-2" edge="1">
          <mxGeometry relative="1" as="geometry">
            <Array as="points">
              <mxPoint x="-400" y="210" />
              <mxPoint x="-400" y="210" />
            </Array>
          </mxGeometry>
        </mxCell>
        <mxCell id="tY30CG3YEIntR_Pu_ahy-36" style="edgeStyle=orthogonalEdgeStyle;rounded=0;orthogonalLoop=1;jettySize=auto;html=1;entryX=0.5;entryY=1;entryDx=0;entryDy=0;" parent="1" source="N72h9mEMTKAlr6Vf99Wo-1" target="N72h9mEMTKAlr6Vf99Wo-9" edge="1">
          <mxGeometry relative="1" as="geometry">
            <Array as="points">
              <mxPoint x="-460" y="190" />
              <mxPoint x="-557" y="190" />
            </Array>
          </mxGeometry>
        </mxCell>
        <mxCell id="tY30CG3YEIntR_Pu_ahy-37" style="edgeStyle=orthogonalEdgeStyle;rounded=0;orthogonalLoop=1;jettySize=auto;html=1;entryX=0.5;entryY=1;entryDx=0;entryDy=0;" parent="1" source="N72h9mEMTKAlr6Vf99Wo-1" target="N72h9mEMTKAlr6Vf99Wo-13" edge="1">
          <mxGeometry relative="1" as="geometry">
            <Array as="points">
              <mxPoint x="-453" y="200" />
              <mxPoint x="-453" y="200" />
            </Array>
          </mxGeometry>
        </mxCell>
        <mxCell id="tY30CG3YEIntR_Pu_ahy-40" style="edgeStyle=orthogonalEdgeStyle;rounded=0;orthogonalLoop=1;jettySize=auto;html=1;entryX=0.383;entryY=1.018;entryDx=0;entryDy=0;entryPerimeter=0;" parent="1" source="N72h9mEMTKAlr6Vf99Wo-1" target="N72h9mEMTKAlr6Vf99Wo-16" edge="1">
          <mxGeometry relative="1" as="geometry">
            <Array as="points">
              <mxPoint x="-420" y="200" />
              <mxPoint x="-356" y="200" />
            </Array>
          </mxGeometry>
        </mxCell>
        <mxCell id="YuYs2lCjZgAJNs5e8azF-13" value="" style="edgeStyle=orthogonalEdgeStyle;rounded=0;orthogonalLoop=1;jettySize=auto;html=1;entryX=0.5;entryY=1;entryDx=0;entryDy=0;" parent="1" source="N72h9mEMTKAlr6Vf99Wo-1" target="YuYs2lCjZgAJNs5e8azF-12" edge="1">
          <mxGeometry relative="1" as="geometry">
            <Array as="points">
              <mxPoint x="-437" y="220" />
              <mxPoint x="-316" y="220" />
            </Array>
          </mxGeometry>
        </mxCell>
        <mxCell id="YuYs2lCjZgAJNs5e8azF-141" value="" style="edgeStyle=orthogonalEdgeStyle;rounded=0;orthogonalLoop=1;jettySize=auto;html=1;" parent="1" target="YuYs2lCjZgAJNs5e8azF-140" edge="1">
          <mxGeometry relative="1" as="geometry">
            <mxPoint x="-377" y="230.00117647058806" as="sourcePoint" />
          </mxGeometry>
        </mxCell>
        <mxCell id="N72h9mEMTKAlr6Vf99Wo-1" value="usuario residente" style="rounded=0;whiteSpace=wrap;html=1;" parent="1" vertex="1">
          <mxGeometry x="-497" y="230" width="120" height="60" as="geometry" />
        </mxCell>
        <mxCell id="N72h9mEMTKAlr6Vf99Wo-2" value="Primer nombre" style="ellipse;whiteSpace=wrap;html=1;rounded=0;" parent="1" vertex="1">
          <mxGeometry x="-440" y="100" width="80" height="80" as="geometry" />
        </mxCell>
        <mxCell id="N72h9mEMTKAlr6Vf99Wo-7" value="celular" style="ellipse;whiteSpace=wrap;html=1;rounded=0;" parent="1" vertex="1">
          <mxGeometry x="-540" y="90" width="80" height="80" as="geometry" />
        </mxCell>
        <mxCell id="N72h9mEMTKAlr6Vf99Wo-9" value="apartamento&amp;nbsp;" style="ellipse;whiteSpace=wrap;html=1;rounded=0;" parent="1" vertex="1">
          <mxGeometry x="-590" y="10" width="80" height="80" as="geometry" />
        </mxCell>
        <mxCell id="N72h9mEMTKAlr6Vf99Wo-11" value="Torre" style="ellipse;whiteSpace=wrap;html=1;rounded=0;" parent="1" vertex="1">
          <mxGeometry x="-677" width="80" height="80" as="geometry" />
        </mxCell>
        <mxCell id="N72h9mEMTKAlr6Vf99Wo-13" value="clave" style="ellipse;whiteSpace=wrap;html=1;rounded=0;" parent="1" vertex="1">
          <mxGeometry x="-493.5" y="10" width="80" height="80" as="geometry" />
        </mxCell>
        <mxCell id="N72h9mEMTKAlr6Vf99Wo-16" value="id_residente" style="ellipse;whiteSpace=wrap;html=1;rounded=0;" parent="1" vertex="1">
          <mxGeometry x="-387" y="10" width="80" height="80" as="geometry" />
        </mxCell>
        <mxCell id="N72h9mEMTKAlr6Vf99Wo-18" value="" style="line;strokeWidth=2;html=1;" parent="1" vertex="1">
          <mxGeometry x="-377" y="60" width="60" height="10" as="geometry" />
        </mxCell>
        <mxCell id="N72h9mEMTKAlr6Vf99Wo-20" value="Parqueadero" style="rounded=0;whiteSpace=wrap;html=1;" parent="1" vertex="1">
          <mxGeometry x="-550" y="950" width="140" height="60" as="geometry" />
        </mxCell>
        <mxCell id="N72h9mEMTKAlr6Vf99Wo-21" value="id_ubicacion" style="ellipse;whiteSpace=wrap;html=1;rounded=0;" parent="1" vertex="1">
          <mxGeometry x="-690" y="1030" width="80" height="80" as="geometry" />
        </mxCell>
        <mxCell id="tY30CG3YEIntR_Pu_ahy-17" value="" style="line;strokeWidth=2;html=1;" parent="1" vertex="1">
          <mxGeometry x="-680" y="1080" width="60" height="10" as="geometry" />
        </mxCell>
        <mxCell id="tY30CG3YEIntR_Pu_ahy-88" value="mensajeria" style="rounded=0;whiteSpace=wrap;html=1;" parent="1" vertex="1">
          <mxGeometry x="-1357" y="590" width="160" height="60" as="geometry" />
        </mxCell>
        <mxCell id="YuYs2lCjZgAJNs5e8azF-33" value="" style="edgeStyle=orthogonalEdgeStyle;rounded=0;orthogonalLoop=1;jettySize=auto;html=1;" parent="1" source="YuYs2lCjZgAJNs5e8azF-1" target="YuYs2lCjZgAJNs5e8azF-32" edge="1">
          <mxGeometry relative="1" as="geometry" />
        </mxCell>
        <mxCell id="YuYs2lCjZgAJNs5e8azF-150" value="" style="edgeStyle=orthogonalEdgeStyle;rounded=0;orthogonalLoop=1;jettySize=auto;html=1;entryX=0.5;entryY=0;entryDx=0;entryDy=0;" parent="1" source="YuYs2lCjZgAJNs5e8azF-1" target="YuYs2lCjZgAJNs5e8azF-114" edge="1">
          <mxGeometry relative="1" as="geometry">
            <Array as="points">
              <mxPoint x="-1040" y="275" />
            </Array>
            <mxPoint x="-1185" y="275" as="targetPoint" />
          </mxGeometry>
        </mxCell>
        <mxCell id="9P1anKjH6oo2aA4pRsv1-5" style="edgeStyle=orthogonalEdgeStyle;rounded=0;orthogonalLoop=1;jettySize=auto;html=1;exitX=0.25;exitY=1;exitDx=0;exitDy=0;" edge="1" parent="1" source="YuYs2lCjZgAJNs5e8azF-1" target="9P1anKjH6oo2aA4pRsv1-7">
          <mxGeometry relative="1" as="geometry">
            <mxPoint x="-570" y="750" as="targetPoint" />
            <Array as="points">
              <mxPoint x="-977" y="330" />
              <mxPoint x="-569" y="330" />
              <mxPoint x="-569" y="750" />
            </Array>
          </mxGeometry>
        </mxCell>
        <mxCell id="YuYs2lCjZgAJNs5e8azF-1" value="Administrador" style="rounded=0;whiteSpace=wrap;html=1;" parent="1" vertex="1">
          <mxGeometry x="-1007" y="230" width="120" height="60" as="geometry" />
        </mxCell>
        <mxCell id="YuYs2lCjZgAJNs5e8azF-2" value="Primer nombre" style="ellipse;whiteSpace=wrap;html=1;rounded=0;" parent="1" vertex="1">
          <mxGeometry x="-1100" y="110" width="80" height="80" as="geometry" />
        </mxCell>
        <mxCell id="YuYs2lCjZgAJNs5e8azF-6" value="Primer apellido" style="ellipse;whiteSpace=wrap;html=1;rounded=0;" parent="1" vertex="1">
          <mxGeometry x="-1020" y="60" width="80" height="80" as="geometry" />
        </mxCell>
        <mxCell id="YuYs2lCjZgAJNs5e8azF-9" value="id_adm" style="ellipse;whiteSpace=wrap;html=1;rounded=0;" parent="1" vertex="1">
          <mxGeometry x="-930" y="60" width="80" height="80" as="geometry" />
        </mxCell>
        <mxCell id="YuYs2lCjZgAJNs5e8azF-115" value="" style="edgeStyle=orthogonalEdgeStyle;rounded=0;orthogonalLoop=1;jettySize=auto;html=1;" parent="1" source="YuYs2lCjZgAJNs5e8azF-11" target="YuYs2lCjZgAJNs5e8azF-114" edge="1">
          <mxGeometry relative="1" as="geometry" />
        </mxCell>
        <mxCell id="YuYs2lCjZgAJNs5e8azF-11" value="Administrador&lt;br&gt;Porteria" style="rounded=0;whiteSpace=wrap;html=1;" parent="1" vertex="1">
          <mxGeometry x="-880" y="590" width="120" height="60" as="geometry" />
        </mxCell>
        <mxCell id="YuYs2lCjZgAJNs5e8azF-12" value="Primer apellido" style="ellipse;whiteSpace=wrap;html=1;rounded=0;" parent="1" vertex="1">
          <mxGeometry x="-350" y="90" width="80" height="80" as="geometry" />
        </mxCell>
        <mxCell id="YuYs2lCjZgAJNs5e8azF-32" value="Asignar rol" style="rhombus;whiteSpace=wrap;html=1;rounded=0;" parent="1" vertex="1">
          <mxGeometry x="-860" y="360" width="80" height="80" as="geometry" />
        </mxCell>
        <mxCell id="YuYs2lCjZgAJNs5e8azF-75" value="comunal" style="ellipse;whiteSpace=wrap;html=1;rounded=0;" parent="1" vertex="1">
          <mxGeometry x="-590" y="1110" width="80" height="80" as="geometry" />
        </mxCell>
        <mxCell id="YuYs2lCjZgAJNs5e8azF-77" value="visitantes" style="ellipse;whiteSpace=wrap;html=1;rounded=0;" parent="1" vertex="1">
          <mxGeometry x="-417" y="1130" width="80" height="80" as="geometry" />
        </mxCell>
        <mxCell id="YuYs2lCjZgAJNs5e8azF-87" value="Prestamo_Zon_Com" style="whiteSpace=wrap;html=1;rounded=0;" parent="1" vertex="1">
          <mxGeometry x="50" y="558" width="120" height="60" as="geometry" />
        </mxCell>
        <mxCell id="YuYs2lCjZgAJNs5e8azF-107" value="confirmacion&lt;br&gt;recibido" style="ellipse;whiteSpace=wrap;html=1;aspect=fixed;" parent="1" vertex="1">
          <mxGeometry x="-1410" y="740" width="80" height="80" as="geometry" />
        </mxCell>
        <mxCell id="YuYs2lCjZgAJNs5e8azF-116" style="edgeStyle=orthogonalEdgeStyle;rounded=0;orthogonalLoop=1;jettySize=auto;html=1;entryX=1;entryY=0.5;entryDx=0;entryDy=0;" parent="1" source="YuYs2lCjZgAJNs5e8azF-114" target="tY30CG3YEIntR_Pu_ahy-88" edge="1">
          <mxGeometry relative="1" as="geometry" />
        </mxCell>
        <mxCell id="YuYs2lCjZgAJNs5e8azF-114" value="registra" style="rhombus;whiteSpace=wrap;html=1;rounded=0;" parent="1" vertex="1">
          <mxGeometry x="-1080" y="580" width="80" height="80" as="geometry" />
        </mxCell>
        <mxCell id="YuYs2lCjZgAJNs5e8azF-121" value="pago_admin" style="rounded=0;whiteSpace=wrap;html=1;" parent="1" vertex="1">
          <mxGeometry x="120" y="230" width="120" height="60" as="geometry" />
        </mxCell>
        <mxCell id="YuYs2lCjZgAJNs5e8azF-123" value="num_factura" style="ellipse;whiteSpace=wrap;html=1;aspect=fixed;" parent="1" vertex="1">
          <mxGeometry x="50" y="90" width="80" height="80" as="geometry" />
        </mxCell>
        <mxCell id="YuYs2lCjZgAJNs5e8azF-124" value="forma de pago" style="ellipse;whiteSpace=wrap;html=1;aspect=fixed;" parent="1" vertex="1">
          <mxGeometry x="140" y="40" width="80" height="80" as="geometry" />
        </mxCell>
        <mxCell id="YuYs2lCjZgAJNs5e8azF-132" style="edgeStyle=orthogonalEdgeStyle;rounded=0;orthogonalLoop=1;jettySize=auto;html=1;entryX=0;entryY=0.5;entryDx=0;entryDy=0;" parent="1" source="YuYs2lCjZgAJNs5e8azF-130" target="YuYs2lCjZgAJNs5e8azF-121" edge="1">
          <mxGeometry relative="1" as="geometry" />
        </mxCell>
        <mxCell id="YuYs2lCjZgAJNs5e8azF-130" value="realiza" style="rhombus;whiteSpace=wrap;html=1;rounded=0;" parent="1" vertex="1">
          <mxGeometry x="-153.5" y="220" width="80" height="80" as="geometry" />
        </mxCell>
        <mxCell id="YuYs2lCjZgAJNs5e8azF-134" value="fecha" style="ellipse;whiteSpace=wrap;html=1;aspect=fixed;" parent="1" vertex="1">
          <mxGeometry x="240" y="100" width="80" height="80" as="geometry" />
        </mxCell>
        <mxCell id="YuYs2lCjZgAJNs5e8azF-140" value="correo_&lt;br&gt;electronico" style="ellipse;whiteSpace=wrap;html=1;rounded=0;" parent="1" vertex="1">
          <mxGeometry x="-307" y="-79.94" width="80" height="80" as="geometry" />
        </mxCell>
        <mxCell id="YuYs2lCjZgAJNs5e8azF-164" value="1" style="text;html=1;align=center;verticalAlign=middle;resizable=0;points=[];autosize=1;strokeColor=none;fillColor=none;" parent="1" vertex="1">
          <mxGeometry x="-1030" y="268" width="30" height="30" as="geometry" />
        </mxCell>
        <mxCell id="YuYs2lCjZgAJNs5e8azF-181" value="1" style="text;html=1;align=center;verticalAlign=middle;resizable=0;points=[];autosize=1;strokeColor=none;fillColor=none;" parent="1" vertex="1">
          <mxGeometry x="-382" y="238" width="30" height="30" as="geometry" />
        </mxCell>
        <mxCell id="YuYs2lCjZgAJNs5e8azF-182" value="n" style="text;html=1;align=center;verticalAlign=middle;resizable=0;points=[];autosize=1;strokeColor=none;fillColor=none;" parent="1" vertex="1">
          <mxGeometry x="85" y="258" width="30" height="30" as="geometry" />
        </mxCell>
        <mxCell id="Az9fNeY62sDaKcCk8jwu-5" value="" style="line;strokeWidth=2;html=1;" parent="1" vertex="1">
          <mxGeometry x="-920" y="110" width="60" height="10" as="geometry" />
        </mxCell>
        <mxCell id="Az9fNeY62sDaKcCk8jwu-6" value="clave" style="ellipse;whiteSpace=wrap;html=1;rounded=0;" parent="1" vertex="1">
          <mxGeometry x="-844" y="80" width="80" height="80" as="geometry" />
        </mxCell>
        <mxCell id="Az9fNeY62sDaKcCk8jwu-13" value="clave" style="ellipse;whiteSpace=wrap;html=1;rounded=0;" parent="1" vertex="1">
          <mxGeometry x="-717" y="660" width="80" height="80" as="geometry" />
        </mxCell>
        <mxCell id="Az9fNeY62sDaKcCk8jwu-18" value="" style="endArrow=classic;html=1;rounded=0;exitX=0.5;exitY=1;exitDx=0;exitDy=0;entryX=0.5;entryY=0;entryDx=0;entryDy=0;" parent="1" source="YuYs2lCjZgAJNs5e8azF-32" target="YuYs2lCjZgAJNs5e8azF-11" edge="1">
          <mxGeometry width="50" height="50" relative="1" as="geometry">
            <mxPoint x="-820" y="540" as="sourcePoint" />
            <mxPoint x="-770" y="490" as="targetPoint" />
          </mxGeometry>
        </mxCell>
        <mxCell id="Az9fNeY62sDaKcCk8jwu-24" value="" style="endArrow=classic;html=1;rounded=0;entryX=-0.01;entryY=0.299;entryDx=0;entryDy=0;exitX=0.5;exitY=1;exitDx=0;exitDy=0;entryPerimeter=0;" parent="1" source="YuYs2lCjZgAJNs5e8azF-11" target="Az9fNeY62sDaKcCk8jwu-13" edge="1">
          <mxGeometry width="50" height="50" relative="1" as="geometry">
            <mxPoint x="-938" y="854.72" as="sourcePoint" />
            <mxPoint x="-786" y="934.72" as="targetPoint" />
          </mxGeometry>
        </mxCell>
        <mxCell id="Az9fNeY62sDaKcCk8jwu-25" value="1" style="text;html=1;align=center;verticalAlign=middle;resizable=0;points=[];autosize=1;strokeColor=none;fillColor=none;" parent="1" vertex="1">
          <mxGeometry x="-897" y="255" width="30" height="30" as="geometry" />
        </mxCell>
        <mxCell id="Az9fNeY62sDaKcCk8jwu-26" value="n" style="text;html=1;align=center;verticalAlign=middle;resizable=0;points=[];autosize=1;strokeColor=none;fillColor=none;" parent="1" vertex="1">
          <mxGeometry x="-820" y="568" width="30" height="30" as="geometry" />
        </mxCell>
        <mxCell id="NT0_bbsCZoUvxWL017kN-3" value="id_residente" style="ellipse;whiteSpace=wrap;html=1;aspect=fixed;" parent="1" vertex="1">
          <mxGeometry x="-1490" y="628" width="80" height="80" as="geometry" />
        </mxCell>
        <mxCell id="NT0_bbsCZoUvxWL017kN-4" value="" style="line;strokeWidth=2;html=1;" parent="1" vertex="1">
          <mxGeometry x="-957" y="715" width="60" height="10" as="geometry" />
        </mxCell>
        <mxCell id="NT0_bbsCZoUvxWL017kN-8" value="" style="endArrow=classic;html=1;rounded=0;exitX=0.5;exitY=1;exitDx=0;exitDy=0;entryX=1;entryY=0.5;entryDx=0;entryDy=0;" parent="1" source="tY30CG3YEIntR_Pu_ahy-88" target="NT0_bbsCZoUvxWL017kN-3" edge="1">
          <mxGeometry width="50" height="50" relative="1" as="geometry">
            <mxPoint x="-1347" y="615" as="sourcePoint" />
            <mxPoint x="-1461" y="605" as="targetPoint" />
          </mxGeometry>
        </mxCell>
        <mxCell id="NT0_bbsCZoUvxWL017kN-9" value="1&lt;br&gt;" style="text;html=1;align=center;verticalAlign=middle;resizable=0;points=[];autosize=1;strokeColor=none;fillColor=none;" parent="1" vertex="1">
          <mxGeometry x="-905" y="618" width="30" height="30" as="geometry" />
        </mxCell>
        <mxCell id="NT0_bbsCZoUvxWL017kN-10" value="n" style="text;html=1;align=center;verticalAlign=middle;resizable=0;points=[];autosize=1;strokeColor=none;fillColor=none;" parent="1" vertex="1">
          <mxGeometry x="-1205" y="588" width="30" height="30" as="geometry" />
        </mxCell>
        <mxCell id="NT0_bbsCZoUvxWL017kN-22" value="" style="endArrow=classic;html=1;rounded=0;exitX=0.5;exitY=1;exitDx=0;exitDy=0;entryX=1;entryY=0;entryDx=0;entryDy=0;" parent="1" source="YuYs2lCjZgAJNs5e8azF-11" target="NT0_bbsCZoUvxWL017kN-25" edge="1">
          <mxGeometry width="50" height="50" relative="1" as="geometry">
            <mxPoint x="-938" y="856" as="sourcePoint" />
            <mxPoint x="-940" y="865" as="targetPoint" />
          </mxGeometry>
        </mxCell>
        <mxCell id="NT0_bbsCZoUvxWL017kN-23" value="" style="endArrow=classic;html=1;rounded=0;exitX=0.5;exitY=1;exitDx=0;exitDy=0;entryX=0.752;entryY=0.005;entryDx=0;entryDy=0;entryPerimeter=0;" parent="1" source="YuYs2lCjZgAJNs5e8azF-11" target="NT0_bbsCZoUvxWL017kN-26" edge="1">
          <mxGeometry width="50" height="50" relative="1" as="geometry">
            <mxPoint x="-939" y="856" as="sourcePoint" />
            <mxPoint x="-868" y="711" as="targetPoint" />
          </mxGeometry>
        </mxCell>
        <mxCell id="NT0_bbsCZoUvxWL017kN-24" value="" style="endArrow=classic;html=1;rounded=0;exitX=0.5;exitY=1;exitDx=0;exitDy=0;" parent="1" source="YuYs2lCjZgAJNs5e8azF-11" target="NT0_bbsCZoUvxWL017kN-27" edge="1">
          <mxGeometry width="50" height="50" relative="1" as="geometry">
            <mxPoint x="-937" y="856" as="sourcePoint" />
            <mxPoint x="-779" y="725" as="targetPoint" />
          </mxGeometry>
        </mxCell>
        <mxCell id="NT0_bbsCZoUvxWL017kN-26" value="Primer nombre" style="ellipse;whiteSpace=wrap;html=1;rounded=0;" parent="1" vertex="1">
          <mxGeometry x="-925" y="740" width="80" height="80" as="geometry" />
        </mxCell>
        <mxCell id="NT0_bbsCZoUvxWL017kN-27" value="Primer apellido" style="ellipse;whiteSpace=wrap;html=1;rounded=0;" parent="1" vertex="1">
          <mxGeometry x="-840" y="760" width="80" height="80" as="geometry" />
        </mxCell>
        <mxCell id="NT0_bbsCZoUvxWL017kN-28" value="num_&lt;br&gt;documento" style="ellipse;whiteSpace=wrap;html=1;rounded=0;" parent="1" vertex="1">
          <mxGeometry x="-750" y="740" width="80" height="80" as="geometry" />
        </mxCell>
        <mxCell id="NT0_bbsCZoUvxWL017kN-29" value="" style="endArrow=classic;html=1;rounded=0;exitX=0.5;exitY=1;exitDx=0;exitDy=0;" parent="1" source="YuYs2lCjZgAJNs5e8azF-11" target="NT0_bbsCZoUvxWL017kN-28" edge="1">
          <mxGeometry width="50" height="50" relative="1" as="geometry">
            <mxPoint x="-930" y="855" as="sourcePoint" />
            <mxPoint x="-765" y="790" as="targetPoint" />
          </mxGeometry>
        </mxCell>
        <mxCell id="NT0_bbsCZoUvxWL017kN-35" value="" style="endArrow=classic;html=1;rounded=0;exitX=1;exitY=0.5;exitDx=0;exitDy=0;entryX=0;entryY=0.5;entryDx=0;entryDy=0;" parent="1" source="N72h9mEMTKAlr6Vf99Wo-1" target="YuYs2lCjZgAJNs5e8azF-130" edge="1">
          <mxGeometry width="50" height="50" relative="1" as="geometry">
            <mxPoint x="-110" y="250" as="sourcePoint" />
            <mxPoint x="-60" y="200" as="targetPoint" />
          </mxGeometry>
        </mxCell>
        <mxCell id="NT0_bbsCZoUvxWL017kN-36" value="" style="endArrow=classic;html=1;rounded=0;entryX=0.5;entryY=1;entryDx=0;entryDy=0;exitX=0.5;exitY=0;exitDx=0;exitDy=0;" parent="1" source="YuYs2lCjZgAJNs5e8azF-121" target="YuYs2lCjZgAJNs5e8azF-123" edge="1">
          <mxGeometry width="50" height="50" relative="1" as="geometry">
            <mxPoint x="40" y="240" as="sourcePoint" />
            <mxPoint x="90" y="190" as="targetPoint" />
          </mxGeometry>
        </mxCell>
        <mxCell id="NT0_bbsCZoUvxWL017kN-37" value="" style="endArrow=classic;html=1;rounded=0;entryX=0.5;entryY=1;entryDx=0;entryDy=0;" parent="1" target="YuYs2lCjZgAJNs5e8azF-124" edge="1">
          <mxGeometry width="50" height="50" relative="1" as="geometry">
            <mxPoint x="180" y="230" as="sourcePoint" />
            <mxPoint x="100" y="180" as="targetPoint" />
          </mxGeometry>
        </mxCell>
        <mxCell id="NT0_bbsCZoUvxWL017kN-38" value="" style="endArrow=classic;html=1;rounded=0;entryX=0.006;entryY=0.799;entryDx=0;entryDy=0;entryPerimeter=0;exitX=0.5;exitY=0;exitDx=0;exitDy=0;" parent="1" source="YuYs2lCjZgAJNs5e8azF-121" target="YuYs2lCjZgAJNs5e8azF-134" edge="1">
          <mxGeometry width="50" height="50" relative="1" as="geometry">
            <mxPoint x="190" y="240" as="sourcePoint" />
            <mxPoint x="190" y="110" as="targetPoint" />
          </mxGeometry>
        </mxCell>
        <mxCell id="NT0_bbsCZoUvxWL017kN-39" value="" style="line;strokeWidth=2;html=1;" parent="1" vertex="1">
          <mxGeometry x="60" y="135" width="60" height="10" as="geometry" />
        </mxCell>
        <mxCell id="NT0_bbsCZoUvxWL017kN-40" value="Generar" style="rhombus;whiteSpace=wrap;html=1;rounded=0;" parent="1" vertex="1">
          <mxGeometry x="-417" y="370" width="80" height="80" as="geometry" />
        </mxCell>
        <mxCell id="NT0_bbsCZoUvxWL017kN-41" value="" style="endArrow=classic;html=1;rounded=0;exitX=1;exitY=1;exitDx=0;exitDy=0;entryX=0.5;entryY=0;entryDx=0;entryDy=0;" parent="1" source="N72h9mEMTKAlr6Vf99Wo-1" target="NT0_bbsCZoUvxWL017kN-40" edge="1">
          <mxGeometry width="50" height="50" relative="1" as="geometry">
            <mxPoint x="-520" y="400" as="sourcePoint" />
            <mxPoint x="-470" y="350" as="targetPoint" />
            <Array as="points" />
          </mxGeometry>
        </mxCell>
        <mxCell id="NT0_bbsCZoUvxWL017kN-42" value="Certificado de pagos" style="rounded=0;whiteSpace=wrap;html=1;" parent="1" vertex="1">
          <mxGeometry x="-280" y="380" width="120" height="60" as="geometry" />
        </mxCell>
        <mxCell id="NT0_bbsCZoUvxWL017kN-43" value="" style="endArrow=classic;html=1;rounded=0;exitX=1;exitY=0.5;exitDx=0;exitDy=0;entryX=0;entryY=0.5;entryDx=0;entryDy=0;" parent="1" source="NT0_bbsCZoUvxWL017kN-40" target="NT0_bbsCZoUvxWL017kN-42" edge="1">
          <mxGeometry width="50" height="50" relative="1" as="geometry">
            <mxPoint x="-370" y="530" as="sourcePoint" />
            <mxPoint x="-320" y="480" as="targetPoint" />
          </mxGeometry>
        </mxCell>
        <mxCell id="NT0_bbsCZoUvxWL017kN-44" value="" style="endArrow=classic;html=1;rounded=0;exitX=1;exitY=0.5;exitDx=0;exitDy=0;entryX=-0.034;entryY=0.641;entryDx=0;entryDy=0;entryPerimeter=0;" parent="1" source="NT0_bbsCZoUvxWL017kN-42" target="NT0_bbsCZoUvxWL017kN-45" edge="1">
          <mxGeometry width="50" height="50" relative="1" as="geometry">
            <mxPoint x="-200" y="410" as="sourcePoint" />
            <mxPoint x="-160" y="370" as="targetPoint" />
          </mxGeometry>
        </mxCell>
        <mxCell id="NT0_bbsCZoUvxWL017kN-45" value="fecha_pago" style="ellipse;whiteSpace=wrap;html=1;aspect=fixed;" parent="1" vertex="1">
          <mxGeometry x="-80" y="280" width="80" height="80" as="geometry" />
        </mxCell>
        <mxCell id="NT0_bbsCZoUvxWL017kN-46" value="1" style="text;html=1;align=center;verticalAlign=middle;resizable=0;points=[];autosize=1;strokeColor=none;fillColor=none;" parent="1" vertex="1">
          <mxGeometry x="-386" y="285" width="30" height="30" as="geometry" />
        </mxCell>
        <mxCell id="NT0_bbsCZoUvxWL017kN-47" value="n" style="text;html=1;align=center;verticalAlign=middle;resizable=0;points=[];autosize=1;strokeColor=none;fillColor=none;" parent="1" vertex="1">
          <mxGeometry x="-310" y="410" width="30" height="30" as="geometry" />
        </mxCell>
        <mxCell id="NT0_bbsCZoUvxWL017kN-48" value="" style="endArrow=classic;html=1;rounded=0;exitX=0.5;exitY=0;exitDx=0;exitDy=0;entryX=1;entryY=1;entryDx=0;entryDy=0;" parent="1" source="YuYs2lCjZgAJNs5e8azF-1" target="YuYs2lCjZgAJNs5e8azF-2" edge="1">
          <mxGeometry width="50" height="50" relative="1" as="geometry">
            <mxPoint x="-950" y="230" as="sourcePoint" />
            <mxPoint x="-900" y="180" as="targetPoint" />
          </mxGeometry>
        </mxCell>
        <mxCell id="NT0_bbsCZoUvxWL017kN-49" value="" style="endArrow=classic;html=1;rounded=0;exitX=0.5;exitY=0;exitDx=0;exitDy=0;entryX=0.607;entryY=0.983;entryDx=0;entryDy=0;entryPerimeter=0;" parent="1" source="YuYs2lCjZgAJNs5e8azF-1" target="YuYs2lCjZgAJNs5e8azF-6" edge="1">
          <mxGeometry width="50" height="50" relative="1" as="geometry">
            <mxPoint x="-937" y="240" as="sourcePoint" />
            <mxPoint x="-1022" y="188" as="targetPoint" />
          </mxGeometry>
        </mxCell>
        <mxCell id="NT0_bbsCZoUvxWL017kN-50" value="" style="endArrow=classic;html=1;rounded=0;exitX=0.5;exitY=0;exitDx=0;exitDy=0;entryX=0.315;entryY=1.025;entryDx=0;entryDy=0;entryPerimeter=0;" parent="1" source="YuYs2lCjZgAJNs5e8azF-1" target="YuYs2lCjZgAJNs5e8azF-9" edge="1">
          <mxGeometry width="50" height="50" relative="1" as="geometry">
            <mxPoint x="-937" y="240" as="sourcePoint" />
            <mxPoint x="-961" y="149" as="targetPoint" />
          </mxGeometry>
        </mxCell>
        <mxCell id="NT0_bbsCZoUvxWL017kN-51" value="" style="endArrow=classic;html=1;rounded=0;exitX=0.5;exitY=0;exitDx=0;exitDy=0;entryX=0;entryY=1;entryDx=0;entryDy=0;" parent="1" source="YuYs2lCjZgAJNs5e8azF-1" target="Az9fNeY62sDaKcCk8jwu-6" edge="1">
          <mxGeometry width="50" height="50" relative="1" as="geometry">
            <mxPoint x="-937" y="240" as="sourcePoint" />
            <mxPoint x="-895" y="152" as="targetPoint" />
          </mxGeometry>
        </mxCell>
        <mxCell id="NT0_bbsCZoUvxWL017kN-56" value="" style="endArrow=classic;html=1;rounded=0;exitX=0.5;exitY=1;exitDx=0;exitDy=0;entryX=0.621;entryY=0.05;entryDx=0;entryDy=0;entryPerimeter=0;" parent="1" source="tY30CG3YEIntR_Pu_ahy-88" target="YuYs2lCjZgAJNs5e8azF-107" edge="1">
          <mxGeometry width="50" height="50" relative="1" as="geometry">
            <mxPoint x="-1267" y="660" as="sourcePoint" />
            <mxPoint x="-1401" y="748" as="targetPoint" />
          </mxGeometry>
        </mxCell>
        <mxCell id="NT0_bbsCZoUvxWL017kN-58" value="" style="endArrow=classic;html=1;rounded=0;exitX=0.5;exitY=1;exitDx=0;exitDy=0;" parent="1" source="tY30CG3YEIntR_Pu_ahy-88" target="XOm7T6tecLqACBnsS4gJ-59" edge="1">
          <mxGeometry width="50" height="50" relative="1" as="geometry">
            <mxPoint x="-1267" y="660" as="sourcePoint" />
            <mxPoint x="-1238.284271247484" y="726.7157287525156" as="targetPoint" />
          </mxGeometry>
        </mxCell>
        <mxCell id="NT0_bbsCZoUvxWL017kN-102" style="edgeStyle=orthogonalEdgeStyle;rounded=0;orthogonalLoop=1;jettySize=auto;html=1;entryX=0;entryY=0.5;entryDx=0;entryDy=0;exitX=0.487;exitY=1.015;exitDx=0;exitDy=0;exitPerimeter=0;" parent="1" source="N72h9mEMTKAlr6Vf99Wo-1" target="NT0_bbsCZoUvxWL017kN-103" edge="1">
          <mxGeometry relative="1" as="geometry">
            <mxPoint x="-218.5" y="528.06" as="targetPoint" />
            <mxPoint x="-450" y="290" as="sourcePoint" />
            <Array as="points">
              <mxPoint x="-440" y="291" />
              <mxPoint x="-440" y="588" />
            </Array>
          </mxGeometry>
        </mxCell>
        <mxCell id="NT0_bbsCZoUvxWL017kN-103" value="Solicitar" style="rhombus;whiteSpace=wrap;html=1;rounded=0;" parent="1" vertex="1">
          <mxGeometry x="-180" y="548" width="80" height="80" as="geometry" />
        </mxCell>
        <mxCell id="NT0_bbsCZoUvxWL017kN-104" value="" style="endArrow=classic;html=1;rounded=0;exitX=1;exitY=0.5;exitDx=0;exitDy=0;entryX=0;entryY=0.5;entryDx=0;entryDy=0;" parent="1" source="NT0_bbsCZoUvxWL017kN-103" target="YuYs2lCjZgAJNs5e8azF-87" edge="1">
          <mxGeometry width="50" height="50" relative="1" as="geometry">
            <mxPoint x="-50" y="668" as="sourcePoint" />
            <mxPoint x="100" y="668" as="targetPoint" />
          </mxGeometry>
        </mxCell>
        <mxCell id="NT0_bbsCZoUvxWL017kN-109" value="n" style="text;html=1;align=center;verticalAlign=middle;resizable=0;points=[];autosize=1;strokeColor=none;fillColor=none;" parent="1" vertex="1">
          <mxGeometry x="25" y="588" width="30" height="30" as="geometry" />
        </mxCell>
        <mxCell id="NT0_bbsCZoUvxWL017kN-114" value="" style="endArrow=classic;html=1;rounded=0;exitX=0.142;exitY=1.007;exitDx=0;exitDy=0;exitPerimeter=0;entryX=0.5;entryY=0;entryDx=0;entryDy=0;" parent="1" source="N72h9mEMTKAlr6Vf99Wo-1" target="NT0_bbsCZoUvxWL017kN-117" edge="1">
          <mxGeometry width="50" height="50" relative="1" as="geometry">
            <mxPoint x="-510" y="810" as="sourcePoint" />
            <mxPoint x="-480" y="750" as="targetPoint" />
          </mxGeometry>
        </mxCell>
        <mxCell id="NT0_bbsCZoUvxWL017kN-115" value="1" style="text;html=1;align=center;verticalAlign=middle;resizable=0;points=[];autosize=1;strokeColor=none;fillColor=none;" parent="1" vertex="1">
          <mxGeometry x="-465" y="288" width="30" height="30" as="geometry" />
        </mxCell>
        <mxCell id="NT0_bbsCZoUvxWL017kN-117" value="Solicitar" style="rhombus;whiteSpace=wrap;html=1;rounded=0;" parent="1" vertex="1">
          <mxGeometry x="-520" y="748" width="80" height="80" as="geometry" />
        </mxCell>
        <mxCell id="NT0_bbsCZoUvxWL017kN-118" value="" style="endArrow=classic;html=1;rounded=0;exitX=0.5;exitY=1;exitDx=0;exitDy=0;entryX=0.5;entryY=0;entryDx=0;entryDy=0;" parent="1" source="NT0_bbsCZoUvxWL017kN-117" target="N72h9mEMTKAlr6Vf99Wo-20" edge="1">
          <mxGeometry width="50" height="50" relative="1" as="geometry">
            <mxPoint x="-780" y="1030" as="sourcePoint" />
            <mxPoint x="-730" y="980" as="targetPoint" />
          </mxGeometry>
        </mxCell>
        <mxCell id="NT0_bbsCZoUvxWL017kN-119" value="" style="endArrow=classic;html=1;rounded=0;exitX=0.5;exitY=1;exitDx=0;exitDy=0;entryX=1.017;entryY=0.344;entryDx=0;entryDy=0;entryPerimeter=0;" parent="1" source="N72h9mEMTKAlr6Vf99Wo-20" target="N72h9mEMTKAlr6Vf99Wo-21" edge="1">
          <mxGeometry width="50" height="50" relative="1" as="geometry">
            <mxPoint x="-510" y="1110" as="sourcePoint" />
            <mxPoint x="-460" y="1060" as="targetPoint" />
          </mxGeometry>
        </mxCell>
        <mxCell id="NT0_bbsCZoUvxWL017kN-120" value="" style="endArrow=classic;html=1;rounded=0;exitX=0.5;exitY=1;exitDx=0;exitDy=0;entryX=1;entryY=0;entryDx=0;entryDy=0;" parent="1" source="N72h9mEMTKAlr6Vf99Wo-20" target="YuYs2lCjZgAJNs5e8azF-75" edge="1">
          <mxGeometry width="50" height="50" relative="1" as="geometry">
            <mxPoint x="-470" y="1020" as="sourcePoint" />
            <mxPoint x="-599" y="1068" as="targetPoint" />
          </mxGeometry>
        </mxCell>
        <mxCell id="NT0_bbsCZoUvxWL017kN-121" value="" style="endArrow=classic;html=1;rounded=0;exitX=0.5;exitY=1;exitDx=0;exitDy=0;entryX=0.5;entryY=0;entryDx=0;entryDy=0;" parent="1" source="N72h9mEMTKAlr6Vf99Wo-20" target="YuYs2lCjZgAJNs5e8azF-77" edge="1">
          <mxGeometry width="50" height="50" relative="1" as="geometry">
            <mxPoint x="-470" y="1020" as="sourcePoint" />
            <mxPoint x="-567" y="1142" as="targetPoint" />
          </mxGeometry>
        </mxCell>
        <mxCell id="NT0_bbsCZoUvxWL017kN-124" value="Consultar" style="rhombus;whiteSpace=wrap;html=1;rounded=0;" parent="1" vertex="1">
          <mxGeometry x="-730" y="205" width="80" height="80" as="geometry" />
        </mxCell>
        <mxCell id="NT0_bbsCZoUvxWL017kN-125" value="" style="endArrow=classic;html=1;rounded=0;exitX=1;exitY=0.25;exitDx=0;exitDy=0;entryX=0;entryY=0.5;entryDx=0;entryDy=0;" parent="1" source="YuYs2lCjZgAJNs5e8azF-1" target="NT0_bbsCZoUvxWL017kN-124" edge="1">
          <mxGeometry width="50" height="50" relative="1" as="geometry">
            <mxPoint x="-710" y="420" as="sourcePoint" />
            <mxPoint x="-680" y="330" as="targetPoint" />
          </mxGeometry>
        </mxCell>
        <mxCell id="NT0_bbsCZoUvxWL017kN-126" value="" style="endArrow=classic;html=1;rounded=0;exitX=1;exitY=0.5;exitDx=0;exitDy=0;entryX=0;entryY=0.25;entryDx=0;entryDy=0;" parent="1" source="NT0_bbsCZoUvxWL017kN-124" target="N72h9mEMTKAlr6Vf99Wo-1" edge="1">
          <mxGeometry width="50" height="50" relative="1" as="geometry">
            <mxPoint x="-670" y="420" as="sourcePoint" />
            <mxPoint x="-620" y="370" as="targetPoint" />
          </mxGeometry>
        </mxCell>
        <mxCell id="NT0_bbsCZoUvxWL017kN-127" value="1" style="text;html=1;align=center;verticalAlign=middle;resizable=0;points=[];autosize=1;strokeColor=none;fillColor=none;" parent="1" vertex="1">
          <mxGeometry x="-885" y="218" width="30" height="30" as="geometry" />
        </mxCell>
        <mxCell id="NT0_bbsCZoUvxWL017kN-128" value="n" style="text;html=1;align=center;verticalAlign=middle;resizable=0;points=[];autosize=1;strokeColor=none;fillColor=none;" parent="1" vertex="1">
          <mxGeometry x="-525" y="238" width="30" height="30" as="geometry" />
        </mxCell>
        <mxCell id="XOm7T6tecLqACBnsS4gJ-1" value="hora_uso" style="ellipse;whiteSpace=wrap;html=1;aspect=fixed;" parent="1" vertex="1">
          <mxGeometry x="290" y="490" width="80" height="80" as="geometry" />
        </mxCell>
        <mxCell id="XOm7T6tecLqACBnsS4gJ-2" value="&lt;u&gt;Id_prestamo&lt;/u&gt;" style="ellipse;whiteSpace=wrap;html=1;aspect=fixed;" parent="1" vertex="1">
          <mxGeometry x="140" y="318" width="80" height="80" as="geometry" />
        </mxCell>
        <mxCell id="XOm7T6tecLqACBnsS4gJ-3" value="&lt;u&gt;Id_Zon_Com&lt;/u&gt;" style="ellipse;whiteSpace=wrap;html=1;aspect=fixed;" parent="1" vertex="1">
          <mxGeometry x="230" y="330" width="80" height="80" as="geometry" />
        </mxCell>
        <mxCell id="XOm7T6tecLqACBnsS4gJ-4" value="fecha_uso" style="ellipse;whiteSpace=wrap;html=1;aspect=fixed;" parent="1" vertex="1">
          <mxGeometry x="290" y="403" width="80" height="80" as="geometry" />
        </mxCell>
        <mxCell id="XOm7T6tecLqACBnsS4gJ-5" value="fecha_solicitud" style="ellipse;whiteSpace=wrap;html=1;aspect=fixed;" parent="1" vertex="1">
          <mxGeometry x="290" y="570" width="80" height="80" as="geometry" />
        </mxCell>
        <mxCell id="XOm7T6tecLqACBnsS4gJ-6" value="hora_entrega" style="ellipse;whiteSpace=wrap;html=1;aspect=fixed;" parent="1" vertex="1">
          <mxGeometry x="270" y="670" width="80" height="80" as="geometry" />
        </mxCell>
        <mxCell id="XOm7T6tecLqACBnsS4gJ-10" value="reporte" style="rhombus;whiteSpace=wrap;html=1;rounded=0;" parent="1" vertex="1">
          <mxGeometry x="-180" y="635" width="80" height="80" as="geometry" />
        </mxCell>
        <mxCell id="XOm7T6tecLqACBnsS4gJ-12" value="" style="endArrow=classic;html=1;rounded=0;entryX=0;entryY=0.5;entryDx=0;entryDy=0;exitX=0.867;exitY=1.037;exitDx=0;exitDy=0;exitPerimeter=0;strokeWidth=3;" parent="1" target="XOm7T6tecLqACBnsS4gJ-10" edge="1" source="YuYs2lCjZgAJNs5e8azF-1">
          <mxGeometry width="50" height="50" relative="1" as="geometry">
            <mxPoint x="-890" y="290" as="sourcePoint" />
            <mxPoint x="-200" y="680" as="targetPoint" />
            <Array as="points">
              <mxPoint x="-903" y="480" />
              <mxPoint x="-600" y="480" />
              <mxPoint x="-600" y="675" />
            </Array>
          </mxGeometry>
        </mxCell>
        <mxCell id="XOm7T6tecLqACBnsS4gJ-14" value="" style="endArrow=classic;html=1;rounded=0;exitX=1;exitY=0.5;exitDx=0;exitDy=0;entryX=0.733;entryY=0.067;entryDx=0;entryDy=0;entryPerimeter=0;strokeWidth=3;" parent="1" source="XOm7T6tecLqACBnsS4gJ-10" edge="1">
          <mxGeometry width="50" height="50" relative="1" as="geometry">
            <mxPoint x="-170" y="510" as="sourcePoint" />
            <mxPoint x="96.98999999999978" y="620.01" as="targetPoint" />
            <Array as="points">
              <mxPoint x="97" y="675" />
            </Array>
          </mxGeometry>
        </mxCell>
        <mxCell id="XOm7T6tecLqACBnsS4gJ-15" value="" style="endArrow=classic;html=1;rounded=0;entryX=0;entryY=1;entryDx=0;entryDy=0;exitX=0.5;exitY=0;exitDx=0;exitDy=0;" parent="1" source="YuYs2lCjZgAJNs5e8azF-87" target="XOm7T6tecLqACBnsS4gJ-2" edge="1">
          <mxGeometry width="50" height="50" relative="1" as="geometry">
            <mxPoint x="-170" y="510" as="sourcePoint" />
            <mxPoint x="-120" y="460" as="targetPoint" />
          </mxGeometry>
        </mxCell>
        <mxCell id="XOm7T6tecLqACBnsS4gJ-16" value="" style="endArrow=classic;html=1;rounded=0;exitX=0.903;exitY=-0.024;exitDx=0;exitDy=0;exitPerimeter=0;" parent="1" source="YuYs2lCjZgAJNs5e8azF-87" target="XOm7T6tecLqACBnsS4gJ-3" edge="1">
          <mxGeometry width="50" height="50" relative="1" as="geometry">
            <mxPoint x="160" y="550" as="sourcePoint" />
            <mxPoint x="232" y="418" as="targetPoint" />
          </mxGeometry>
        </mxCell>
        <mxCell id="XOm7T6tecLqACBnsS4gJ-17" value="" style="endArrow=classic;html=1;rounded=0;exitX=1;exitY=0.25;exitDx=0;exitDy=0;" parent="1" source="YuYs2lCjZgAJNs5e8azF-87" target="XOm7T6tecLqACBnsS4gJ-4" edge="1">
          <mxGeometry width="50" height="50" relative="1" as="geometry">
            <mxPoint x="130" y="578" as="sourcePoint" />
            <mxPoint x="287" y="475" as="targetPoint" />
          </mxGeometry>
        </mxCell>
        <mxCell id="XOm7T6tecLqACBnsS4gJ-18" value="" style="endArrow=classic;html=1;rounded=0;exitX=1;exitY=0.75;exitDx=0;exitDy=0;entryX=0.046;entryY=0.38;entryDx=0;entryDy=0;entryPerimeter=0;" parent="1" source="YuYs2lCjZgAJNs5e8azF-87" target="XOm7T6tecLqACBnsS4gJ-1" edge="1">
          <mxGeometry width="50" height="50" relative="1" as="geometry">
            <mxPoint x="180" y="583" as="sourcePoint" />
            <mxPoint x="291" y="551" as="targetPoint" />
          </mxGeometry>
        </mxCell>
        <mxCell id="XOm7T6tecLqACBnsS4gJ-19" value="" style="endArrow=classic;html=1;rounded=0;exitX=1;exitY=1;exitDx=0;exitDy=0;" parent="1" source="YuYs2lCjZgAJNs5e8azF-87" target="XOm7T6tecLqACBnsS4gJ-5" edge="1">
          <mxGeometry width="50" height="50" relative="1" as="geometry">
            <mxPoint x="180" y="613" as="sourcePoint" />
            <mxPoint x="239" y="675" as="targetPoint" />
          </mxGeometry>
        </mxCell>
        <mxCell id="XOm7T6tecLqACBnsS4gJ-22" value="" style="endArrow=classic;html=1;rounded=0;exitX=0.75;exitY=1;exitDx=0;exitDy=0;entryX=0;entryY=0;entryDx=0;entryDy=0;" parent="1" source="YuYs2lCjZgAJNs5e8azF-87" target="XOm7T6tecLqACBnsS4gJ-6" edge="1">
          <mxGeometry width="50" height="50" relative="1" as="geometry">
            <mxPoint x="180" y="628" as="sourcePoint" />
            <mxPoint x="249" y="685" as="targetPoint" />
          </mxGeometry>
        </mxCell>
        <mxCell id="XOm7T6tecLqACBnsS4gJ-23" value="Estado" style="ellipse;whiteSpace=wrap;html=1;aspect=fixed;" parent="1" vertex="1">
          <mxGeometry x="200" y="748" width="80" height="80" as="geometry" />
        </mxCell>
        <mxCell id="XOm7T6tecLqACBnsS4gJ-24" value="" style="endArrow=classic;html=1;rounded=0;entryX=0;entryY=0;entryDx=0;entryDy=0;" parent="1" source="YuYs2lCjZgAJNs5e8azF-87" target="XOm7T6tecLqACBnsS4gJ-23" edge="1">
          <mxGeometry width="50" height="50" relative="1" as="geometry">
            <mxPoint x="-30" y="1013" as="sourcePoint" />
            <mxPoint x="-260" y="915" as="targetPoint" />
          </mxGeometry>
        </mxCell>
        <mxCell id="XOm7T6tecLqACBnsS4gJ-25" value="Entregado" style="ellipse;whiteSpace=wrap;html=1;aspect=fixed;" parent="1" vertex="1">
          <mxGeometry x="220" y="918" width="80" height="80" as="geometry" />
        </mxCell>
        <mxCell id="XOm7T6tecLqACBnsS4gJ-26" value="Negado" style="ellipse;whiteSpace=wrap;html=1;aspect=fixed;" parent="1" vertex="1">
          <mxGeometry x="300" y="890" width="80" height="80" as="geometry" />
        </mxCell>
        <mxCell id="XOm7T6tecLqACBnsS4gJ-27" value="Aprobado" style="ellipse;whiteSpace=wrap;html=1;aspect=fixed;" parent="1" vertex="1">
          <mxGeometry x="380" y="838" width="80" height="80" as="geometry" />
        </mxCell>
        <mxCell id="XOm7T6tecLqACBnsS4gJ-28" value="Solicitado" style="ellipse;whiteSpace=wrap;html=1;aspect=fixed;" parent="1" vertex="1">
          <mxGeometry x="420" y="765" width="80" height="80" as="geometry" />
        </mxCell>
        <mxCell id="XOm7T6tecLqACBnsS4gJ-29" value="" style="endArrow=classic;html=1;rounded=0;exitX=1;exitY=1;exitDx=0;exitDy=0;" parent="1" source="XOm7T6tecLqACBnsS4gJ-23" target="XOm7T6tecLqACBnsS4gJ-28" edge="1">
          <mxGeometry width="50" height="50" relative="1" as="geometry">
            <mxPoint x="280" y="765" as="sourcePoint" />
            <mxPoint x="364" y="907" as="targetPoint" />
          </mxGeometry>
        </mxCell>
        <mxCell id="XOm7T6tecLqACBnsS4gJ-30" value="" style="endArrow=classic;html=1;rounded=0;exitX=1;exitY=1;exitDx=0;exitDy=0;" parent="1" source="XOm7T6tecLqACBnsS4gJ-23" target="XOm7T6tecLqACBnsS4gJ-27" edge="1">
          <mxGeometry width="50" height="50" relative="1" as="geometry">
            <mxPoint x="260" y="810" as="sourcePoint" />
            <mxPoint x="410" y="828" as="targetPoint" />
          </mxGeometry>
        </mxCell>
        <mxCell id="XOm7T6tecLqACBnsS4gJ-31" value="" style="endArrow=classic;html=1;rounded=0;entryX=0.5;entryY=0;entryDx=0;entryDy=0;exitX=1;exitY=1;exitDx=0;exitDy=0;" parent="1" source="XOm7T6tecLqACBnsS4gJ-23" target="XOm7T6tecLqACBnsS4gJ-26" edge="1">
          <mxGeometry width="50" height="50" relative="1" as="geometry">
            <mxPoint x="250" y="840" as="sourcePoint" />
            <mxPoint x="350" y="875" as="targetPoint" />
          </mxGeometry>
        </mxCell>
        <mxCell id="XOm7T6tecLqACBnsS4gJ-32" value="" style="endArrow=classic;html=1;rounded=0;exitX=1;exitY=1;exitDx=0;exitDy=0;entryX=0.5;entryY=0;entryDx=0;entryDy=0;" parent="1" source="XOm7T6tecLqACBnsS4gJ-23" target="XOm7T6tecLqACBnsS4gJ-25" edge="1">
          <mxGeometry width="50" height="50" relative="1" as="geometry">
            <mxPoint x="212.5" y="820" as="sourcePoint" />
            <mxPoint x="327.5" y="867" as="targetPoint" />
          </mxGeometry>
        </mxCell>
        <mxCell id="XOm7T6tecLqACBnsS4gJ-33" value="tipo_vehiculo" style="ellipse;whiteSpace=wrap;html=1;rounded=0;" parent="1" vertex="1">
          <mxGeometry x="-317" y="1050" width="80" height="80" as="geometry" />
        </mxCell>
        <mxCell id="XOm7T6tecLqACBnsS4gJ-34" value="" style="endArrow=classic;html=1;rounded=0;entryX=-0.005;entryY=0.344;entryDx=0;entryDy=0;entryPerimeter=0;" parent="1" target="XOm7T6tecLqACBnsS4gJ-33" edge="1">
          <mxGeometry width="50" height="50" relative="1" as="geometry">
            <mxPoint x="-480" y="1008" as="sourcePoint" />
            <mxPoint x="-350" y="1082" as="targetPoint" />
          </mxGeometry>
        </mxCell>
        <mxCell id="XOm7T6tecLqACBnsS4gJ-35" value="&lt;u&gt;placa&lt;/u&gt;" style="ellipse;whiteSpace=wrap;html=1;rounded=0;" parent="1" vertex="1">
          <mxGeometry x="-780" y="980" width="90" height="80" as="geometry" />
        </mxCell>
        <mxCell id="XOm7T6tecLqACBnsS4gJ-36" value="" style="endArrow=classic;html=1;rounded=0;exitX=0.5;exitY=1;exitDx=0;exitDy=0;entryX=1;entryY=0.5;entryDx=0;entryDy=0;" parent="1" source="N72h9mEMTKAlr6Vf99Wo-20" target="XOm7T6tecLqACBnsS4gJ-35" edge="1">
          <mxGeometry width="50" height="50" relative="1" as="geometry">
            <mxPoint x="-970" y="960" as="sourcePoint" />
            <mxPoint x="-670" y="990" as="targetPoint" />
          </mxGeometry>
        </mxCell>
        <mxCell id="XOm7T6tecLqACBnsS4gJ-37" value="hora_uso" style="ellipse;whiteSpace=wrap;html=1;aspect=fixed;" parent="1" vertex="1">
          <mxGeometry x="-332" y="1320" width="80" height="80" as="geometry" />
        </mxCell>
        <mxCell id="XOm7T6tecLqACBnsS4gJ-38" value="fecha_uso" style="ellipse;whiteSpace=wrap;html=1;aspect=fixed;" parent="1" vertex="1">
          <mxGeometry x="-227" y="1320" width="80" height="80" as="geometry" />
        </mxCell>
        <mxCell id="XOm7T6tecLqACBnsS4gJ-39" value="fecha_solicitud" style="ellipse;whiteSpace=wrap;html=1;aspect=fixed;" parent="1" vertex="1">
          <mxGeometry x="-430" y="1320" width="80" height="80" as="geometry" />
        </mxCell>
        <mxCell id="XOm7T6tecLqACBnsS4gJ-40" value="hora_entrega" style="ellipse;whiteSpace=wrap;html=1;aspect=fixed;" parent="1" vertex="1">
          <mxGeometry x="-530" y="1320" width="80" height="80" as="geometry" />
        </mxCell>
        <mxCell id="XOm7T6tecLqACBnsS4gJ-41" value="" style="endArrow=classic;html=1;rounded=0;entryX=0.5;entryY=0;entryDx=0;entryDy=0;exitX=0.5;exitY=1;exitDx=0;exitDy=0;" parent="1" source="YuYs2lCjZgAJNs5e8azF-77" target="XOm7T6tecLqACBnsS4gJ-39" edge="1">
          <mxGeometry width="50" height="50" relative="1" as="geometry">
            <mxPoint x="-490" y="1240" as="sourcePoint" />
            <mxPoint x="-570" y="1320" as="targetPoint" />
          </mxGeometry>
        </mxCell>
        <mxCell id="XOm7T6tecLqACBnsS4gJ-42" value="" style="endArrow=classic;html=1;rounded=0;exitX=0.5;exitY=1;exitDx=0;exitDy=0;entryX=0.5;entryY=0;entryDx=0;entryDy=0;" parent="1" source="YuYs2lCjZgAJNs5e8azF-77" target="XOm7T6tecLqACBnsS4gJ-37" edge="1">
          <mxGeometry width="50" height="50" relative="1" as="geometry">
            <mxPoint x="-492" y="1254" as="sourcePoint" />
            <mxPoint x="-560" y="1310" as="targetPoint" />
          </mxGeometry>
        </mxCell>
        <mxCell id="XOm7T6tecLqACBnsS4gJ-43" value="" style="endArrow=classic;html=1;rounded=0;exitX=0.5;exitY=1;exitDx=0;exitDy=0;entryX=0.374;entryY=0.053;entryDx=0;entryDy=0;entryPerimeter=0;" parent="1" source="YuYs2lCjZgAJNs5e8azF-77" target="XOm7T6tecLqACBnsS4gJ-38" edge="1">
          <mxGeometry width="50" height="50" relative="1" as="geometry">
            <mxPoint x="-480" y="1250" as="sourcePoint" />
            <mxPoint x="-462" y="1310" as="targetPoint" />
          </mxGeometry>
        </mxCell>
        <mxCell id="XOm7T6tecLqACBnsS4gJ-44" value="" style="endArrow=classic;html=1;rounded=0;exitX=0.5;exitY=1;exitDx=0;exitDy=0;entryX=0.712;entryY=0.125;entryDx=0;entryDy=0;entryPerimeter=0;" parent="1" source="YuYs2lCjZgAJNs5e8azF-77" target="XOm7T6tecLqACBnsS4gJ-40" edge="1">
          <mxGeometry width="50" height="50" relative="1" as="geometry">
            <mxPoint x="-480" y="1250" as="sourcePoint" />
            <mxPoint x="-367" y="1314" as="targetPoint" />
          </mxGeometry>
        </mxCell>
        <mxCell id="XOm7T6tecLqACBnsS4gJ-46" value="verifica" style="rhombus;whiteSpace=wrap;html=1;rounded=0;" parent="1" vertex="1">
          <mxGeometry x="-180" y="725" width="80" height="80" as="geometry" />
        </mxCell>
        <mxCell id="XOm7T6tecLqACBnsS4gJ-48" value="" style="endArrow=classic;html=1;rounded=0;exitX=1;exitY=0.5;exitDx=0;exitDy=0;entryX=0.5;entryY=1;entryDx=0;entryDy=0;" parent="1" source="YuYs2lCjZgAJNs5e8azF-11" target="XOm7T6tecLqACBnsS4gJ-46" edge="1">
          <mxGeometry width="50" height="50" relative="1" as="geometry">
            <mxPoint x="-550" y="500" as="sourcePoint" />
            <mxPoint x="-500" y="450" as="targetPoint" />
            <Array as="points">
              <mxPoint x="-280" y="620" />
              <mxPoint x="-280" y="840" />
              <mxPoint x="-140" y="840" />
            </Array>
          </mxGeometry>
        </mxCell>
        <mxCell id="XOm7T6tecLqACBnsS4gJ-49" value="" style="endArrow=classic;html=1;rounded=0;exitX=1;exitY=0.5;exitDx=0;exitDy=0;strokeWidth=2;" parent="1" source="XOm7T6tecLqACBnsS4gJ-46" edge="1">
          <mxGeometry width="50" height="50" relative="1" as="geometry">
            <mxPoint x="-550" y="500" as="sourcePoint" />
            <mxPoint x="110" y="620" as="targetPoint" />
            <Array as="points">
              <mxPoint x="-40" y="765" />
              <mxPoint x="40" y="765" />
              <mxPoint x="110" y="765" />
            </Array>
          </mxGeometry>
        </mxCell>
        <mxCell id="XOm7T6tecLqACBnsS4gJ-50" value="" style="endArrow=classic;html=1;rounded=0;exitX=0.5;exitY=1;exitDx=0;exitDy=0;entryX=0;entryY=0.5;entryDx=0;entryDy=0;strokeWidth=2;" parent="1" source="YuYs2lCjZgAJNs5e8azF-1" target="XOm7T6tecLqACBnsS4gJ-46" edge="1">
          <mxGeometry width="50" height="50" relative="1" as="geometry">
            <mxPoint x="-550" y="500" as="sourcePoint" />
            <mxPoint x="-510" y="540" as="targetPoint" />
            <Array as="points">
              <mxPoint x="-947" y="540" />
              <mxPoint x="-520" y="540" />
              <mxPoint x="-520" y="720" />
              <mxPoint x="-330" y="720" />
              <mxPoint x="-330" y="765" />
            </Array>
          </mxGeometry>
        </mxCell>
        <mxCell id="XOm7T6tecLqACBnsS4gJ-56" value="Mensajes administrativos" style="ellipse;whiteSpace=wrap;html=1;rounded=0;" parent="1" vertex="1">
          <mxGeometry x="-1290" y="908" width="90" height="90" as="geometry" />
        </mxCell>
        <mxCell id="XOm7T6tecLqACBnsS4gJ-57" value="Recibos pago administracon" style="ellipse;whiteSpace=wrap;html=1;aspect=fixed;" parent="1" vertex="1">
          <mxGeometry x="-1210" y="863" width="80" height="80" as="geometry" />
        </mxCell>
        <mxCell id="XOm7T6tecLqACBnsS4gJ-58" value="otros_paquetes" style="ellipse;whiteSpace=wrap;html=1;aspect=fixed;" parent="1" vertex="1">
          <mxGeometry x="-1130" y="816" width="80" height="80" as="geometry" />
        </mxCell>
        <mxCell id="XOm7T6tecLqACBnsS4gJ-59" value="Tipo_mensaje" style="ellipse;whiteSpace=wrap;html=1;aspect=fixed;" parent="1" vertex="1">
          <mxGeometry x="-1265" y="725" width="80" height="80" as="geometry" />
        </mxCell>
        <mxCell id="XOm7T6tecLqACBnsS4gJ-60" value="" style="endArrow=classic;html=1;rounded=0;exitX=0.5;exitY=1;exitDx=0;exitDy=0;entryX=0.315;entryY=0.078;entryDx=0;entryDy=0;entryPerimeter=0;" parent="1" source="XOm7T6tecLqACBnsS4gJ-59" target="XOm7T6tecLqACBnsS4gJ-56" edge="1">
          <mxGeometry width="50" height="50" relative="1" as="geometry">
            <mxPoint x="-1295" y="795" as="sourcePoint" />
            <mxPoint x="-1259" y="873" as="targetPoint" />
          </mxGeometry>
        </mxCell>
        <mxCell id="XOm7T6tecLqACBnsS4gJ-61" value="" style="endArrow=classic;html=1;rounded=0;exitX=0.5;exitY=1;exitDx=0;exitDy=0;" parent="1" source="XOm7T6tecLqACBnsS4gJ-59" target="XOm7T6tecLqACBnsS4gJ-57" edge="1">
          <mxGeometry width="50" height="50" relative="1" as="geometry">
            <mxPoint x="-1215" y="815" as="sourcePoint" />
            <mxPoint x="-1252" y="925" as="targetPoint" />
          </mxGeometry>
        </mxCell>
        <mxCell id="XOm7T6tecLqACBnsS4gJ-62" value="" style="endArrow=classic;html=1;rounded=0;exitX=0.5;exitY=1;exitDx=0;exitDy=0;entryX=0.085;entryY=0.295;entryDx=0;entryDy=0;entryPerimeter=0;" parent="1" source="XOm7T6tecLqACBnsS4gJ-59" target="XOm7T6tecLqACBnsS4gJ-58" edge="1">
          <mxGeometry width="50" height="50" relative="1" as="geometry">
            <mxPoint x="-1215" y="815" as="sourcePoint" />
            <mxPoint x="-1179" y="878" as="targetPoint" />
          </mxGeometry>
        </mxCell>
        <mxCell id="XOm7T6tecLqACBnsS4gJ-63" value="Mensaje_masivo" style="ellipse;whiteSpace=wrap;html=1;rounded=0;" parent="1" vertex="1">
          <mxGeometry x="-1380" y="880" width="90" height="90" as="geometry" />
        </mxCell>
        <mxCell id="XOm7T6tecLqACBnsS4gJ-64" value="" style="endArrow=classic;html=1;rounded=0;entryX=0.648;entryY=0.047;entryDx=0;entryDy=0;entryPerimeter=0;" parent="1" target="XOm7T6tecLqACBnsS4gJ-63" edge="1">
          <mxGeometry width="50" height="50" relative="1" as="geometry">
            <mxPoint x="-1220" y="800" as="sourcePoint" />
            <mxPoint x="-1252" y="925" as="targetPoint" />
          </mxGeometry>
        </mxCell>
        <mxCell id="XOm7T6tecLqACBnsS4gJ-65" value="n&lt;br&gt;" style="text;html=1;align=center;verticalAlign=middle;resizable=0;points=[];autosize=1;strokeColor=none;fillColor=none;" parent="1" vertex="1">
          <mxGeometry x="-1037" y="550" width="30" height="30" as="geometry" />
        </mxCell>
        <mxCell id="XOm7T6tecLqACBnsS4gJ-66" value="" style="ellipse;whiteSpace=wrap;html=1;aspect=fixed;fillColor=none;" parent="1" vertex="1">
          <mxGeometry x="-530" y="100" width="60" height="60" as="geometry" />
        </mxCell>
        <mxCell id="XOm7T6tecLqACBnsS4gJ-67" value="hora_pago" style="ellipse;whiteSpace=wrap;html=1;aspect=fixed;" parent="1" vertex="1">
          <mxGeometry x="-90" y="360" width="80" height="80" as="geometry" />
        </mxCell>
        <mxCell id="XOm7T6tecLqACBnsS4gJ-68" value="valor_pago" style="ellipse;whiteSpace=wrap;html=1;aspect=fixed;" parent="1" vertex="1">
          <mxGeometry x="-90" y="450" width="80" height="80" as="geometry" />
        </mxCell>
        <mxCell id="XOm7T6tecLqACBnsS4gJ-69" value="" style="endArrow=classic;html=1;rounded=0;exitX=1;exitY=0.5;exitDx=0;exitDy=0;entryX=0;entryY=0.5;entryDx=0;entryDy=0;" parent="1" source="NT0_bbsCZoUvxWL017kN-42" target="XOm7T6tecLqACBnsS4gJ-67" edge="1">
          <mxGeometry width="50" height="50" relative="1" as="geometry">
            <mxPoint x="-150" y="420" as="sourcePoint" />
            <mxPoint x="-73" y="341" as="targetPoint" />
          </mxGeometry>
        </mxCell>
        <mxCell id="XOm7T6tecLqACBnsS4gJ-70" value="" style="endArrow=classic;html=1;rounded=0;entryX=0.008;entryY=0.255;entryDx=0;entryDy=0;entryPerimeter=0;exitX=1;exitY=0.5;exitDx=0;exitDy=0;" parent="1" source="NT0_bbsCZoUvxWL017kN-42" target="XOm7T6tecLqACBnsS4gJ-68" edge="1">
          <mxGeometry width="50" height="50" relative="1" as="geometry">
            <mxPoint x="-150" y="420" as="sourcePoint" />
            <mxPoint x="-80" y="410" as="targetPoint" />
          </mxGeometry>
        </mxCell>
        <mxCell id="XOm7T6tecLqACBnsS4gJ-71" value="valor_a_pagar" style="ellipse;whiteSpace=wrap;html=1;aspect=fixed;" parent="1" vertex="1">
          <mxGeometry x="300" y="170" width="80" height="80" as="geometry" />
        </mxCell>
        <mxCell id="XOm7T6tecLqACBnsS4gJ-72" value="" style="endArrow=classic;html=1;rounded=0;entryX=0;entryY=0.5;entryDx=0;entryDy=0;exitX=0.5;exitY=0;exitDx=0;exitDy=0;" parent="1" source="YuYs2lCjZgAJNs5e8azF-121" target="XOm7T6tecLqACBnsS4gJ-71" edge="1">
          <mxGeometry width="50" height="50" relative="1" as="geometry">
            <mxPoint x="170" y="230" as="sourcePoint" />
            <mxPoint x="250" y="174" as="targetPoint" />
          </mxGeometry>
        </mxCell>
        <mxCell id="XOm7T6tecLqACBnsS4gJ-73" value="DescripciÃ³n" style="ellipse;whiteSpace=wrap;html=1;rounded=0;" parent="1" vertex="1">
          <mxGeometry x="-1250" y="1040" width="90" height="90" as="geometry" />
        </mxCell>
        <mxCell id="XOm7T6tecLqACBnsS4gJ-74" value="" style="endArrow=classic;html=1;rounded=0;exitX=0.5;exitY=1;exitDx=0;exitDy=0;" parent="1" source="XOm7T6tecLqACBnsS4gJ-56" target="XOm7T6tecLqACBnsS4gJ-73" edge="1">
          <mxGeometry width="50" height="50" relative="1" as="geometry">
            <mxPoint x="-1265" y="983" as="sourcePoint" />
            <mxPoint x="-1302" y="1093" as="targetPoint" />
          </mxGeometry>
        </mxCell>
        <mxCell id="XOm7T6tecLqACBnsS4gJ-75" value="DescripciÃ³n" style="ellipse;whiteSpace=wrap;html=1;rounded=0;" parent="1" vertex="1">
          <mxGeometry x="-1150" y="988" width="90" height="90" as="geometry" />
        </mxCell>
        <mxCell id="XOm7T6tecLqACBnsS4gJ-76" value="" style="endArrow=classic;html=1;rounded=0;exitX=0.738;exitY=0.996;exitDx=0;exitDy=0;exitPerimeter=0;" parent="1" source="XOm7T6tecLqACBnsS4gJ-57" target="XOm7T6tecLqACBnsS4gJ-75" edge="1">
          <mxGeometry width="50" height="50" relative="1" as="geometry">
            <mxPoint x="-1145" y="946" as="sourcePoint" />
            <mxPoint x="-1202" y="1041" as="targetPoint" />
          </mxGeometry>
        </mxCell>
        <mxCell id="XOm7T6tecLqACBnsS4gJ-77" value="DescripciÃ³n" style="ellipse;whiteSpace=wrap;html=1;rounded=0;" parent="1" vertex="1">
          <mxGeometry x="-1070" y="929" width="90" height="90" as="geometry" />
        </mxCell>
        <mxCell id="XOm7T6tecLqACBnsS4gJ-78" value="" style="endArrow=classic;html=1;rounded=0;exitX=0.738;exitY=1.026;exitDx=0;exitDy=0;exitPerimeter=0;" parent="1" source="XOm7T6tecLqACBnsS4gJ-58" target="XOm7T6tecLqACBnsS4gJ-77" edge="1">
          <mxGeometry width="50" height="50" relative="1" as="geometry">
            <mxPoint x="-1070" y="880" as="sourcePoint" />
            <mxPoint x="-1122" y="982" as="targetPoint" />
          </mxGeometry>
        </mxCell>
        <mxCell id="XOm7T6tecLqACBnsS4gJ-79" value="DescripciÃ³n" style="ellipse;whiteSpace=wrap;html=1;rounded=0;" parent="1" vertex="1">
          <mxGeometry x="-1400" y="1030" width="90" height="90" as="geometry" />
        </mxCell>
        <mxCell id="XOm7T6tecLqACBnsS4gJ-80" value="" style="endArrow=classic;html=1;rounded=0;exitX=0.5;exitY=1;exitDx=0;exitDy=0;" parent="1" source="XOm7T6tecLqACBnsS4gJ-63" target="XOm7T6tecLqACBnsS4gJ-79" edge="1">
          <mxGeometry width="50" height="50" relative="1" as="geometry">
            <mxPoint x="-1360" y="960" as="sourcePoint" />
            <mxPoint x="-1409" y="1062" as="targetPoint" />
          </mxGeometry>
        </mxCell>
        <mxCell id="XOm7T6tecLqACBnsS4gJ-81" value="fecha_inicio" style="ellipse;whiteSpace=wrap;html=1;rounded=0;" parent="1" vertex="1">
          <mxGeometry x="-750" y="1260" width="80" height="80" as="geometry" />
        </mxCell>
        <mxCell id="XOm7T6tecLqACBnsS4gJ-82" value="" style="endArrow=classic;html=1;rounded=0;entryX=1;entryY=0;entryDx=0;entryDy=0;exitX=0.354;exitY=0.986;exitDx=0;exitDy=0;exitPerimeter=0;" parent="1" source="YuYs2lCjZgAJNs5e8azF-75" target="XOm7T6tecLqACBnsS4gJ-81" edge="1">
          <mxGeometry width="50" height="50" relative="1" as="geometry">
            <mxPoint x="-620" y="1200" as="sourcePoint" />
            <mxPoint x="-840" y="1290" as="targetPoint" />
          </mxGeometry>
        </mxCell>
        <mxCell id="XOm7T6tecLqACBnsS4gJ-83" value="fecha_fin" style="ellipse;whiteSpace=wrap;html=1;rounded=0;" parent="1" vertex="1">
          <mxGeometry x="-660" y="1300" width="80" height="80" as="geometry" />
        </mxCell>
        <mxCell id="XOm7T6tecLqACBnsS4gJ-84" value="" style="endArrow=classic;html=1;rounded=0;exitX=0.33;exitY=0.995;exitDx=0;exitDy=0;entryX=0.5;entryY=0;entryDx=0;entryDy=0;exitPerimeter=0;" parent="1" source="YuYs2lCjZgAJNs5e8azF-75" target="XOm7T6tecLqACBnsS4gJ-83" edge="1">
          <mxGeometry width="50" height="50" relative="1" as="geometry">
            <mxPoint x="-777" y="1240" as="sourcePoint" />
            <mxPoint x="-707" y="1362" as="targetPoint" />
          </mxGeometry>
        </mxCell>
        <mxCell id="XOm7T6tecLqACBnsS4gJ-85" value="1" style="text;html=1;align=center;verticalAlign=middle;resizable=0;points=[];autosize=1;strokeColor=none;fillColor=none;" parent="1" vertex="1">
          <mxGeometry x="-505" y="288" width="30" height="30" as="geometry" />
        </mxCell>
        <mxCell id="XOm7T6tecLqACBnsS4gJ-88" value="n" style="text;html=1;align=center;verticalAlign=middle;resizable=0;points=[];autosize=1;strokeColor=none;fillColor=none;" parent="1" vertex="1">
          <mxGeometry x="-480" y="920" width="30" height="30" as="geometry" />
        </mxCell>
        <mxCell id="9P1anKjH6oo2aA4pRsv1-1" value="1" style="text;html=1;align=center;verticalAlign=middle;resizable=0;points=[];autosize=1;strokeColor=none;fillColor=none;" vertex="1" parent="1">
          <mxGeometry x="-945" y="288" width="30" height="30" as="geometry" />
        </mxCell>
        <mxCell id="9P1anKjH6oo2aA4pRsv1-3" value="1" style="text;html=1;align=center;verticalAlign=middle;resizable=0;points=[];autosize=1;strokeColor=none;fillColor=none;" vertex="1" parent="1">
          <mxGeometry x="-905" y="288" width="30" height="30" as="geometry" />
        </mxCell>
        <mxCell id="9P1anKjH6oo2aA4pRsv1-4" value="n" style="text;html=1;align=center;verticalAlign=middle;resizable=0;points=[];autosize=1;strokeColor=none;fillColor=none;" vertex="1" parent="1">
          <mxGeometry x="105" y="618" width="30" height="30" as="geometry" />
        </mxCell>
        <mxCell id="9P1anKjH6oo2aA4pRsv1-6" value="1" style="text;html=1;align=center;verticalAlign=middle;resizable=0;points=[];autosize=1;strokeColor=none;fillColor=none;" vertex="1" parent="1">
          <mxGeometry x="-1005" y="288" width="30" height="30" as="geometry" />
        </mxCell>
        <mxCell id="9P1anKjH6oo2aA4pRsv1-8" style="edgeStyle=orthogonalEdgeStyle;rounded=0;orthogonalLoop=1;jettySize=auto;html=1;exitX=0.5;exitY=1;exitDx=0;exitDy=0;entryX=0.25;entryY=0;entryDx=0;entryDy=0;" edge="1" parent="1" source="9P1anKjH6oo2aA4pRsv1-7" target="N72h9mEMTKAlr6Vf99Wo-20">
          <mxGeometry relative="1" as="geometry">
            <mxPoint x="-560" y="900" as="targetPoint" />
          </mxGeometry>
        </mxCell>
        <mxCell id="9P1anKjH6oo2aA4pRsv1-7" value="verificar" style="rhombus;whiteSpace=wrap;html=1;" vertex="1" parent="1">
          <mxGeometry x="-610" y="750" width="80" height="80" as="geometry" />
        </mxCell>
        <mxCell id="9P1anKjH6oo2aA4pRsv1-9" value="n" style="text;html=1;align=center;verticalAlign=middle;resizable=0;points=[];autosize=1;strokeColor=none;fillColor=none;" vertex="1" parent="1">
          <mxGeometry x="-545" y="918" width="30" height="30" as="geometry" />
        </mxCell>
        <mxCell id="9P1anKjH6oo2aA4pRsv1-10" value="n" style="text;html=1;strokeColor=none;fillColor=none;align=center;verticalAlign=middle;whiteSpace=wrap;rounded=0;" vertex="1" parent="1">
          <mxGeometry x="45" y="618" width="60" height="30" as="geometry" />
        </mxCell>
        <mxCell id="9P1anKjH6oo2aA4pRsv1-11" value="1" style="text;html=1;align=center;verticalAlign=middle;resizable=0;points=[];autosize=1;strokeColor=none;fillColor=none;" vertex="1" parent="1">
          <mxGeometry x="-765" y="588" width="30" height="30" as="geometry" />
        </mxCell>
        <mxCell id="9P1anKjH6oo2aA4pRsv1-12" value="n" style="text;html=1;align=center;verticalAlign=middle;resizable=0;points=[];autosize=1;strokeColor=none;fillColor=none;" vertex="1" parent="1">
          <mxGeometry x="-135" y="798" width="30" height="30" as="geometry" />
        </mxCell>
      </root>
    </mxGraphModel>
  </diagram>
</mxfile>
